<svg xmlns="http://www.w3.org/2000/svg" viewBox="0 0 236.18 273.55"><defs><style>.cls-1{fill:#e50000;}</style></defs><title>logo</title><g id="Layer_2" data-name="Layer 2"><g id="Layer_1-2" data-name="Layer 1"><path class="cls-1" d="M40.66,253.91a1.44,1.44,0,0,1,.36,1,1.32,1.32,0,0,1-1.29,1.32,1.17,1.17,0,0,1-.92-.43,7.44,7.44,0,0,0-5.51-2.54c-4.82,0-8.48,3.7-8.48,8.94s3.66,8.94,8.48,8.94a7.28,7.28,0,0,0,5.51-2.51,1.28,1.28,0,0,1,.92-.43A1.32,1.32,0,0,1,41,269.52a1.42,1.42,0,0,1-.36.92,9.8,9.8,0,0,1-7.36,3.1,11.39,11.39,0,0,1,0-22.77A9.65,9.65,0,0,1,40.66,253.91Z"/><path class="cls-1" d="M48,253.28a1.67,1.67,0,0,1-3.33,0,1.67,1.67,0,1,1,3.33,0ZM46.3,273.35a1.24,1.24,0,0,1-1.22-1.22V258.2A1.25,1.25,0,0,1,46.37,257a1.23,1.23,0,0,1,1.19,1.19v13.93A1.25,1.25,0,0,1,46.3,273.35Z"/><path class="cls-1" d="M56.53,273.55c-2.34,0-3.53-1.35-3.53-3.73V259.39H51.22a1.06,1.06,0,0,1-1.06-1.12,1,1,0,0,1,1.06-1.06H53v-3.37a1.25,1.25,0,0,1,1.29-1.19,1.23,1.23,0,0,1,1.19,1.19v3.37h2.38a1.06,1.06,0,0,1,1.06,1.12,1,1,0,0,1-1.06,1.06H55.48v9.9c0,1.19.53,2,1.62,2,.43,0,.92-.23,1.32-.23a1.06,1.06,0,0,1,1.06,1C59.47,273.19,58,273.55,56.53,273.55Z"/><path class="cls-1" d="M65.11,253.28a1.67,1.67,0,0,1-3.33,0,1.67,1.67,0,1,1,3.33,0Zm-1.68,20.07a1.24,1.24,0,0,1-1.22-1.22V258.2A1.25,1.25,0,0,1,63.5,257a1.23,1.23,0,0,1,1.19,1.19v13.93A1.25,1.25,0,0,1,63.43,273.35Z"/><path class="cls-1" d="M80.2,273.15H69.83a1.17,1.17,0,0,1-1.12-1.25,1.48,1.48,0,0,1,.3-.83l8.65-11.68H69.73a1.06,1.06,0,0,1-1.06-1.12,1,1,0,0,1,1.06-1.06H80a1.15,1.15,0,0,1,1.09,1.22,1.34,1.34,0,0,1-.26.79L72,271H80.2a1,1,0,0,1,1,1A1.05,1.05,0,0,1,80.2,273.15Z"/><path class="cls-1" d="M98.41,266H86.89a5.62,5.62,0,0,0,5.74,5.51A6.91,6.91,0,0,0,96.93,270a1.11,1.11,0,0,1,.56-.17,1,1,0,0,1,1,1c0,1.72-4.13,2.67-6.07,2.67-4.72,0-8.12-3.4-8.12-8.38,0-4.62,3.3-8.35,7.86-8.35,4,0,6.57,2.51,7.39,6.17a8.64,8.64,0,0,1,.23,1.65A1.36,1.36,0,0,1,98.41,266Zm-6.3-7.13c-3.4,0-5.08,2.87-5.22,5.31H97.36A5.17,5.17,0,0,0,92.11,258.86Z"/><path class="cls-1" d="M115.77,273.35a1.24,1.24,0,0,1-1.22-1.22v-9.41c0-2.81-1.42-3.7-3.56-3.7a6.15,6.15,0,0,0-4.72,2.48v10.63a1.24,1.24,0,0,1-2.48,0V258.2a1.25,1.25,0,0,1,1.29-1.19,1.23,1.23,0,0,1,1.19,1.19v1.32a7.91,7.91,0,0,1,5.68-2.71c3.33,0,5.08,1.68,5.08,5.15v10.17A1.25,1.25,0,0,1,115.77,273.35Z"/><path class="cls-1" d="M150.24,273.35a1.34,1.34,0,0,1-1.35-1.35V255l-7.39,17.89a.7.7,0,0,1-.69.43.68.68,0,0,1-.63-.43L132.82,255v17a1.37,1.37,0,0,1-2.74,0V253.18a2.27,2.27,0,0,1,2.28-2.21,2.4,2.4,0,0,1,2.18,1.39l6.3,15.35,6.34-15.35a2.36,2.36,0,0,1,2.18-1.39,2.27,2.27,0,0,1,2.28,2.21V272A1.35,1.35,0,0,1,150.24,273.35Z"/><path class="cls-1" d="M169.88,266H158.36a5.62,5.62,0,0,0,5.74,5.51,6.91,6.91,0,0,0,4.29-1.49,1.11,1.11,0,0,1,.56-.17,1,1,0,0,1,1,1c0,1.72-4.13,2.67-6.07,2.67-4.72,0-8.12-3.4-8.12-8.38,0-4.62,3.3-8.35,7.86-8.35,4,0,6.57,2.51,7.39,6.17a8.67,8.67,0,0,1,.23,1.65A1.36,1.36,0,0,1,169.88,266Zm-6.3-7.13c-3.4,0-5.08,2.87-5.21,5.31h10.46A5.17,5.17,0,0,0,163.57,258.86Z"/><path class="cls-1" d="M188,273.35a1.24,1.24,0,0,1-1.22-1.22v-1.35a6.71,6.71,0,0,1-5.38,2.77c-4.16,0-7.1-3.17-7.1-8.35s2.9-8.38,7.1-8.38a6.66,6.66,0,0,1,5.38,2.81v-7.49a1.25,1.25,0,0,1,1.29-1.19,1.23,1.23,0,0,1,1.19,1.19v20A1.25,1.25,0,0,1,188,273.35Zm-1.22-11.75A6,6,0,0,0,182,259c-3.2,0-5.12,2.64-5.12,6.17s1.91,6.14,5.12,6.14a5.93,5.93,0,0,0,4.79-2.51Z"/><path class="cls-1" d="M197.14,253.28a1.67,1.67,0,0,1-3.33,0,1.67,1.67,0,1,1,3.33,0Zm-1.68,20.07a1.24,1.24,0,0,1-1.22-1.22V258.2a1.25,1.25,0,0,1,1.29-1.19,1.23,1.23,0,0,1,1.19,1.19v13.93A1.25,1.25,0,0,1,195.46,273.35Z"/><path class="cls-1" d="M213.94,271.47a6.88,6.88,0,0,1-5.25,2.08c-4.75,0-8-3.63-8-8.38s3.2-8.35,8-8.35a6.88,6.88,0,0,1,5.25,2.08,1.07,1.07,0,0,1,.26.69,1.16,1.16,0,0,1-1.12,1.12,1.2,1.2,0,0,1-.86-.36,4.65,4.65,0,0,0-3.4-1.32c-3.4,0-5.51,2.61-5.51,6.14s2.11,6.17,5.51,6.17a4.68,4.68,0,0,0,3.4-1.35,1.27,1.27,0,0,1,.83-.3,1.14,1.14,0,0,1,1.15,1.09A1,1,0,0,1,213.94,271.47Z"/><circle class="cls-1" cx="118.09" cy="69.58" r="20.63"/><path class="cls-1" d="M230.2,0H6A6.31,6.31,0,0,0,0,7l16.3,152.5a12,12,0,0,0,2.09,5.61c7.32,10.29,37.61,48.52,99.66,73.13,62.05-24.61,92.35-62.77,99.66-73.06a11.61,11.61,0,0,0,2.09-5.5L236.14,7A6.3,6.3,0,0,0,230.2,0ZM87.89,180A192,192,0,0,1,68,164.28a159.34,159.34,0,0,1-12.8-13,11.58,11.58,0,0,1-2.78-6.39L45.23,77.25,88,115.06a4.36,4.36,0,0,1,1.47,3.38Zm43.41-50.23-2.62,2.62L118.09,143,107.5,132.38l-2.62-2.62a7.49,7.49,0,1,1,10.59-10.59l2.62,2.62,2.62-2.62a7.49,7.49,0,1,1,10.59,10.59Zm52.41,15.13a11.58,11.58,0,0,1-2.78,6.39,159.28,159.28,0,0,1-12.8,13A192,192,0,0,1,148.29,180l-1.62-61.55a4.36,4.36,0,0,1,1.47-3.38l42.8-37.81Zm10.7-100.14-1.3,12.19C176.87,67.31,149.66,84.67,142.33,89c-10,6-22.54,5.7-24.08,5.64h-.32c-1.54.06-14.09.34-24.08-5.62C86.52,84.69,59.31,67.37,43.06,57l-1.3-12.25A6.09,6.09,0,0,1,47.72,38H188.46A6.09,6.09,0,0,1,194.41,44.75Z"/></g></g></svg>